<svg width="258" height="145" viewBox="0 0 258 145" fill="none" xmlns="http://www.w3.org/2000/svg">
<g filter="url(#filter0_d_15_6)">
<ellipse cx="129" cy="72" rx="125" ry="65" fill="#FF769B"/>
<path d="M43.0711 86C40.6391 86 38.7511 85.36 37.4071 84.08C36.0631 82.8 35.3911 81.008 35.3911 78.704V54.8C35.3911 53.904 35.6791 53.2 36.2551 52.688C36.8311 52.176 37.5991 51.92 38.5591 51.92C39.5191 51.92 40.2871 52.192 40.8631 52.736C41.4711 53.248 41.7751 53.936 41.7751 54.8V78.704C41.7751 79.44 41.9511 80.016 42.3031 80.432C42.6871 80.848 43.1991 81.056 43.8391 81.056H59.1991C60.1591 81.056 60.8951 81.28 61.4071 81.728C61.9191 82.144 62.1751 82.752 62.1751 83.552C62.1751 84.32 61.9031 84.928 61.3591 85.376C60.8471 85.792 60.1271 86 59.1991 86H43.0711ZM70.7023 86.48C69.7423 86.48 68.9743 86.224 68.3983 85.712C67.8223 85.2 67.5343 84.496 67.5343 83.6V54.8C67.5343 53.904 67.8223 53.2 68.3983 52.688C68.9743 52.176 69.7423 51.92 70.7023 51.92C71.6303 51.92 72.3983 52.176 73.0063 52.688C73.6143 53.2 73.9183 53.904 73.9183 54.8V83.6C73.9183 84.496 73.6143 85.2 73.0063 85.712C72.3983 86.224 71.6303 86.48 70.7023 86.48ZM96.9433 86.48C93.8073 86.48 90.8633 85.968 88.1113 84.944C85.3593 83.888 82.9753 82.384 80.9593 80.432C80.4793 79.952 80.2393 79.408 80.2393 78.8C80.2393 78.096 80.5593 77.424 81.1992 76.784C81.7113 76.272 82.2713 76.016 82.8793 76.016C83.5193 76.016 84.2873 76.384 85.1833 77.12C86.6873 78.496 88.4633 79.568 90.5113 80.336C92.5913 81.072 94.7353 81.44 96.9433 81.44C99.0553 81.44 100.703 81.088 101.887 80.384C103.071 79.648 103.663 78.624 103.663 77.312C103.663 75.936 103.023 74.832 101.743 74C100.463 73.136 98.2873 72.368 95.2153 71.696C90.3833 70.64 86.8633 69.248 84.6553 67.52C82.4793 65.792 81.3913 63.568 81.3913 60.848C81.3913 59.12 81.9673 57.584 83.1193 56.24C84.2713 54.864 85.8713 53.808 87.9193 53.072C89.9993 52.304 92.3673 51.92 95.0233 51.92C97.9993 51.92 100.639 52.416 102.943 53.408C105.279 54.368 107.055 55.728 108.271 57.488C108.687 58.16 108.895 58.736 108.895 59.216C108.863 60.016 108.463 60.704 107.695 61.28C107.279 61.568 106.799 61.712 106.255 61.712C105.263 61.712 104.447 61.328 103.807 60.56C102.879 59.44 101.631 58.56 100.063 57.92C98.5273 57.28 96.8473 56.96 95.0233 56.96C92.7513 56.96 90.9753 57.312 89.6953 58.016C88.4473 58.688 87.8233 59.632 87.8233 60.848C87.8233 62.064 88.4313 63.072 89.6473 63.872C90.8953 64.64 93.0393 65.376 96.0793 66.08C99.4393 66.88 102.143 67.792 104.191 68.816C106.239 69.808 107.727 70.992 108.655 72.368C109.615 73.744 110.095 75.392 110.095 77.312C110.095 79.136 109.551 80.752 108.463 82.16C107.375 83.536 105.839 84.608 103.855 85.376C101.871 86.112 99.5673 86.48 96.9433 86.48ZM127.734 86.48C126.774 86.48 126.006 86.224 125.43 85.712C124.854 85.2 124.566 84.496 124.566 83.6V57.344H115.302C114.374 57.344 113.638 57.136 113.094 56.72C112.582 56.272 112.326 55.664 112.326 54.896C112.326 54.096 112.582 53.488 113.094 53.072C113.606 52.624 114.342 52.4 115.302 52.4H140.214C141.174 52.4 141.91 52.624 142.422 53.072C142.934 53.488 143.19 54.096 143.19 54.896C143.19 55.664 142.918 56.272 142.374 56.72C141.862 57.136 141.142 57.344 140.214 57.344H130.95V83.6C130.95 84.464 130.646 85.168 130.038 85.712C129.462 86.224 128.694 86.48 127.734 86.48ZM151.749 86.48C150.789 86.48 150.021 86.224 149.445 85.712C148.869 85.2 148.581 84.496 148.581 83.6V54.8C148.581 53.904 148.869 53.2 149.445 52.688C150.021 52.176 150.789 51.92 151.749 51.92C152.677 51.92 153.445 52.176 154.053 52.688C154.661 53.2 154.965 53.904 154.965 54.8V83.6C154.965 84.496 154.661 85.2 154.053 85.712C153.445 86.224 152.677 86.48 151.749 86.48ZM164.934 86.48C163.974 86.48 163.206 86.224 162.63 85.712C162.054 85.2 161.766 84.496 161.766 83.6V59.504C161.766 57.264 162.406 55.52 163.686 54.272C164.998 53.024 166.806 52.4 169.11 52.4H184.038C184.998 52.4 185.734 52.624 186.246 53.072C186.758 53.488 187.014 54.096 187.014 54.896C187.014 55.664 186.742 56.272 186.198 56.72C185.686 57.136 184.966 57.344 184.038 57.344H170.214C169.574 57.344 169.062 57.552 168.678 57.968C168.326 58.384 168.15 58.96 168.15 59.696V66.848H180.39C181.35 66.848 182.086 67.072 182.598 67.52C183.11 67.936 183.366 68.544 183.366 69.344C183.366 70.112 183.094 70.72 182.55 71.168C182.038 71.584 181.318 71.792 180.39 71.792H168.15V83.6C168.15 84.464 167.846 85.168 167.238 85.712C166.662 86.224 165.894 86.48 164.934 86.48ZM217.903 51.92C218.863 51.92 219.631 52.176 220.207 52.688C220.783 53.2 221.071 53.904 221.071 54.8V59.84C221.071 64.096 219.999 67.568 217.855 70.256C215.711 72.912 212.719 74.528 208.879 75.104V83.6C208.879 84.464 208.575 85.168 207.967 85.712C207.391 86.224 206.623 86.48 205.663 86.48C204.703 86.48 203.935 86.224 203.359 85.712C202.783 85.2 202.495 84.496 202.495 83.6V75.104C198.623 74.528 195.615 72.912 193.471 70.256C191.327 67.6 190.255 64.128 190.255 59.84V54.8C190.255 53.904 190.543 53.2 191.119 52.688C191.695 52.176 192.463 51.92 193.423 51.92C194.383 51.92 195.151 52.192 195.727 52.736C196.335 53.248 196.639 53.936 196.639 54.8V59.984C196.639 63.312 197.407 65.872 198.943 67.664C200.511 69.424 202.751 70.304 205.663 70.304C208.575 70.304 210.799 69.424 212.335 67.664C213.903 65.872 214.687 63.312 214.687 59.984V54.8C214.687 53.936 214.975 53.248 215.551 52.736C216.159 52.192 216.943 51.92 217.903 51.92Z" fill="#FFFDFE"/>
</g>
<defs>
<filter id="filter0_d_15_6" x="0" y="7" width="258" height="138" filterUnits="userSpaceOnUse" color-interpolation-filters="sRGB">
<feFlood flood-opacity="0" result="BackgroundImageFix"/>
<feColorMatrix in="SourceAlpha" type="matrix" values="0 0 0 0 0 0 0 0 0 0 0 0 0 0 0 0 0 0 127 0" result="hardAlpha"/>
<feOffset dy="4"/>
<feGaussianBlur stdDeviation="2"/>
<feComposite in2="hardAlpha" operator="out"/>
<feColorMatrix type="matrix" values="0 0 0 0 0 0 0 0 0 0 0 0 0 0 0 0 0 0 0.25 0"/>
<feBlend mode="normal" in2="BackgroundImageFix" result="effect1_dropShadow_15_6"/>
<feBlend mode="normal" in="SourceGraphic" in2="effect1_dropShadow_15_6" result="shape"/>
</filter>
</defs>
</svg>
